<svg version="1.1" id="Layer_1" xmlns="http://www.w3.org/2000/svg" xmlns:xlink="http://www.w3.org/1999/xlink" x="0px" y="0px"
	 width="100%" viewBox="0 0 600 129" enable-background="new 0 0 600 129" xml:space="preserve">
<path fill="#2A0843" opacity="1.000000" stroke="none" 
	d="
M399.000000,130.000000 
	C266.045441,130.000000 133.590866,130.000000 1.068152,130.000000 
	C1.068152,87.060272 1.068152,44.120407 1.068152,1.090270 
	C200.999985,1.090270 401.000000,1.090270 600.965332,1.090270 
	C600.965332,44.075710 600.965332,87.037872 600.965332,130.000000 
	C533.787109,130.000000 466.643555,130.000000 399.000000,130.000000 
M318.605957,93.002274 
	C326.933289,93.002274 335.267334,93.206772 343.585693,92.933334 
	C349.540283,92.737595 355.613983,92.521294 361.386047,91.215622 
	C371.768860,88.866982 376.761841,82.855194 377.773926,73.070419 
	C378.796417,63.184971 374.735565,56.098618 366.327301,51.921982 
	C368.851074,48.152390 372.596832,44.618153 373.806793,40.362873 
	C377.396545,27.738022 370.350006,17.338093 356.563354,16.250437 
	C342.560608,15.145732 328.402802,16.006460 313.694916,16.006460 
	C314.211945,15.545173 313.985931,15.652537 313.985718,15.760354 
	C313.936371,40.574287 313.958221,65.388603 313.802277,90.201797 
	C313.781555,93.500610 315.661255,93.030289 318.605957,93.002274 
M518.581604,33.804276 
	C514.619751,36.391129 509.872162,38.280136 506.840729,41.693356 
	C497.043488,52.724586 497.431549,73.525894 507.000305,84.769096 
	C515.711975,95.005249 530.329529,95.911255 540.307556,86.839905 
	C541.203857,86.025040 542.137085,85.250755 543.292236,84.250679 
	C544.290527,94.909195 540.692505,101.266304 532.734680,102.825233 
	C529.515625,103.455864 526.025391,103.791481 522.835754,103.238907 
	C517.532227,102.320114 512.371521,100.576454 507.139801,99.177277 
	C507.139801,103.538284 507.139801,108.003922 507.139801,112.554962 
	C516.055481,115.649033 525.089844,116.738831 534.270569,115.704376 
	C553.972046,113.484489 562.310303,103.959473 562.344116,84.007973 
	C562.369263,69.181870 562.349792,54.355701 562.350159,39.529564 
	C562.350220,37.916191 562.350220,36.302818 562.350220,34.512413 
	C555.879089,34.512413 549.982483,34.512413 543.932434,34.512413 
	C543.785156,37.027439 543.654480,39.258770 543.466431,42.470638 
	C536.653503,34.561920 528.826721,31.621956 518.581604,33.804276 
M164.271530,80.988304 
	C167.789032,87.537682 172.526642,92.642509 180.119751,94.359680 
	C189.708084,96.528076 197.604080,93.388496 204.499176,85.598175 
	C204.674408,88.688385 204.792282,90.766960 204.923264,93.077011 
	C211.043610,93.077011 216.944748,93.077011 223.053467,93.077011 
	C223.053467,66.010735 223.053467,39.164673 223.053467,12.262292 
	C216.840485,12.262292 210.922699,12.262292 204.717255,12.262292 
	C204.717255,17.492113 204.717255,22.460791 204.717255,27.429468 
	C204.717255,32.305073 204.717255,37.180679 204.717255,42.697582 
	C203.585419,41.808918 203.179840,41.546471 202.840515,41.215977 
	C189.264999,27.993961 170.160019,31.934551 163.400772,49.616989 
	C159.515854,59.780060 159.776962,70.133629 164.271530,80.988304 
M76.457939,85.040443 
	C76.457939,81.327248 76.457939,77.614044 76.457939,73.510971 
	C58.067184,82.602020 44.802174,82.368858 36.989513,73.245506 
	C29.432474,64.420662 28.916912,46.821835 35.931709,37.137375 
	C43.403816,26.821560 54.644665,26.210970 76.449524,35.222580 
	C76.449524,30.561932 76.662071,26.113440 76.309860,21.710121 
	C76.213959,20.511257 74.632195,18.974401 73.366081,18.399950 
	C65.005188,14.606503 56.152882,13.302816 47.050484,14.202117 
	C32.768349,15.613169 20.999681,21.437273 14.506370,34.875648 
	C9.136545,45.988884 8.933694,57.724964 12.611735,69.425591 
	C15.836745,79.685036 22.571379,87.024582 32.502445,91.144257 
	C46.114120,96.790749 59.802032,96.302124 73.256294,90.600586 
	C74.722878,89.979073 75.409348,87.516685 76.457939,85.040443 
M288.054047,92.654999 
	C297.273438,89.950882 298.391724,87.546150 295.664185,76.075928 
	C286.720276,80.417068 277.517212,83.574287 267.371826,82.091087 
	C260.205780,81.043472 256.161682,76.533417 256.429535,69.562851 
	C270.498383,69.562851 284.590088,69.562851 298.611359,69.562851 
	C301.160889,51.835709 292.627136,37.787918 277.067871,34.524498 
	C272.279419,33.520168 267.100037,33.629799 262.186676,34.113426 
	C248.023239,35.507553 238.009369,45.963455 236.881332,59.936600 
	C235.459274,77.551750 242.381958,88.942856 257.164368,93.282532 
	C267.235779,96.239204 277.256927,95.069916 288.054047,92.654999 
M88.877480,74.334801 
	C91.997375,79.117325 94.273315,84.860504 98.405510,88.490761 
	C108.280426,97.166168 128.668198,97.224800 139.762344,89.637085 
	C150.164169,82.522873 154.427368,67.947510 150.255066,53.763695 
	C146.547195,41.158642 136.554550,34.226513 121.400185,33.746349 
	C105.283531,33.235691 93.367287,39.433449 89.886436,51.946434 
	C88.001083,58.723896 88.983353,66.299080 88.877480,74.334801 
M433.224426,43.783970 
	C426.063171,52.751610 425.442657,63.020336 427.768951,73.624443 
	C429.988617,83.742821 436.405914,90.537224 446.399963,93.084900 
	C451.784302,94.457474 457.598022,95.059807 463.139526,94.721985 
	C477.003906,93.876808 486.642670,85.865669 489.675385,73.670486 
	C493.190094,59.537010 488.594849,45.834373 478.545532,38.799328 
	C468.637817,31.863382 444.001434,30.806911 433.224426,43.783970 
M410.169159,11.994630 
	C404.892303,11.994630 399.615417,11.994630 394.222595,11.994630 
	C394.222595,39.297222 394.222595,66.147163 394.222595,93.068962 
	C400.408264,93.068962 406.335907,93.068962 412.276642,93.068962 
	C412.449249,92.356071 412.659393,91.892334 412.659821,91.428398 
	C412.682678,65.972992 412.706329,40.517509 412.627808,15.062354 
	C412.624695,14.044298 411.635406,13.029284 410.169159,11.994630 
M589.757751,84.540581 
	C589.757751,81.777870 589.757751,79.015160 589.757751,76.189804 
	C583.139404,76.189804 577.253845,76.189804 571.277710,76.189804 
	C571.277710,82.899185 571.277710,89.266167 571.277710,95.681992 
	C577.505066,95.681992 583.385376,95.681992 589.757446,95.681992 
	C589.757446,92.081802 589.757446,88.798019 589.757751,84.540581 
z"/>
<path fill="#FDFCFD" opacity="1.000000" stroke="none" 
	d="
M318.118408,93.002258 
	C315.661255,93.030289 313.781555,93.500610 313.802277,90.201797 
	C313.958221,65.388603 313.936371,40.574287 313.985718,15.760354 
	C313.985931,15.652537 314.211945,15.545173 313.694916,16.006460 
	C328.402802,16.006460 342.560608,15.145732 356.563354,16.250437 
	C370.350006,17.338093 377.396545,27.738022 373.806793,40.362873 
	C372.596832,44.618153 368.851074,48.152390 366.327301,51.921982 
	C374.735565,56.098618 378.796417,63.184971 377.773926,73.070419 
	C376.761841,82.855194 371.768860,88.866982 361.386047,91.215622 
	C355.613983,92.521294 349.540283,92.737595 343.585693,92.933334 
	C335.267334,93.206772 326.933289,93.002274 318.118408,93.002258 
M333.909058,67.516182 
	C333.909058,71.300819 333.909058,75.085457 333.909058,78.972885 
	C339.380249,78.972885 344.368683,79.310509 349.290527,78.882484 
	C354.735321,78.408997 357.780945,74.480515 357.786835,68.961601 
	C357.792786,63.440277 354.745300,59.569626 349.244904,59.107075 
	C344.325256,58.693359 339.343353,59.020050 333.909058,59.020050 
	C333.909058,61.618855 333.909058,64.075226 333.909058,67.516182 
M342.358002,45.000431 
	C343.521271,44.991711 344.688293,45.040146 345.847198,44.964611 
	C351.578522,44.591034 354.575500,41.769936 354.547394,36.820805 
	C354.519012,31.821703 351.597412,29.092741 345.751831,28.869398 
	C341.972443,28.724995 338.183044,28.842247 334.208954,28.842247 
	C334.208954,34.360584 334.208954,39.551811 334.208954,45.000454 
	C336.809845,45.000454 339.113068,45.000454 342.358002,45.000431 
z"/>
<path fill="#FCFBFC" opacity="1.000000" stroke="none" 
	d="
M518.981323,33.683720 
	C528.826721,31.621956 536.653503,34.561920 543.466431,42.470638 
	C543.654480,39.258770 543.785156,37.027439 543.932434,34.512413 
	C549.982483,34.512413 555.879089,34.512413 562.350220,34.512413 
	C562.350220,36.302818 562.350220,37.916191 562.350159,39.529564 
	C562.349792,54.355701 562.369263,69.181870 562.344116,84.007973 
	C562.310303,103.959473 553.972046,113.484489 534.270569,115.704376 
	C525.089844,116.738831 516.055481,115.649033 507.139801,112.554962 
	C507.139801,108.003922 507.139801,103.538284 507.139801,99.177277 
	C512.371521,100.576454 517.532227,102.320114 522.835754,103.238907 
	C526.025391,103.791481 529.515625,103.455864 532.734680,102.825233 
	C540.692505,101.266304 544.290527,94.909195 543.292236,84.250679 
	C542.137085,85.250755 541.203857,86.025040 540.307556,86.839905 
	C530.329529,95.911255 515.711975,95.005249 507.000305,84.769096 
	C497.431549,73.525894 497.043488,52.724586 506.840729,41.693356 
	C509.872162,38.280136 514.619751,36.391129 518.981323,33.683720 
M538.982361,76.648247 
	C544.714355,69.956345 544.601257,62.317112 542.171875,54.542377 
	C540.405640,48.889549 536.457825,46.385296 530.914001,46.575424 
	C525.754150,46.752388 521.572754,49.528660 520.428955,54.922726 
	C519.486694,59.365925 519.141113,64.219910 519.865845,68.674706 
	C521.506042,78.756058 529.414062,82.123367 538.982361,76.648247 
z"/>
<path fill="#FDFDFD" opacity="1.000000" stroke="none" 
	d="
M164.133423,80.631897 
	C159.776962,70.133629 159.515854,59.780060 163.400772,49.616989 
	C170.160019,31.934551 189.264999,27.993961 202.840515,41.215977 
	C203.179840,41.546471 203.585419,41.808918 204.717255,42.697582 
	C204.717255,37.180679 204.717255,32.305073 204.717255,27.429468 
	C204.717255,22.460791 204.717255,17.492113 204.717255,12.262292 
	C210.922699,12.262292 216.840485,12.262292 223.053467,12.262292 
	C223.053467,39.164673 223.053467,66.010735 223.053467,93.077011 
	C216.944748,93.077011 211.043610,93.077011 204.923264,93.077011 
	C204.792282,90.766960 204.674408,88.688385 204.499176,85.598175 
	C197.604080,93.388496 189.708084,96.528076 180.119751,94.359680 
	C172.526642,92.642509 167.789032,87.537682 164.133423,80.631897 
M182.733002,52.435310 
	C179.188873,59.559811 179.223633,66.876320 181.870209,74.197639 
	C183.657135,79.140915 187.421692,81.415520 192.700394,81.325455 
	C197.811737,81.238235 201.878571,78.839806 202.795242,74.054199 
	C203.894623,68.314758 204.077408,62.236710 203.557510,56.403294 
	C203.162979,51.976536 200.182327,48.390228 195.394791,47.348450 
	C190.464417,46.275578 186.137283,47.364532 182.733002,52.435310 
z"/>
<path fill="#FCFBFC" opacity="1.000000" stroke="none" 
	d="
M76.457802,85.474304 
	C75.409348,87.516685 74.722878,89.979073 73.256294,90.600586 
	C59.802032,96.302124 46.114120,96.790749 32.502445,91.144257 
	C22.571379,87.024582 15.836745,79.685036 12.611735,69.425591 
	C8.933694,57.724964 9.136545,45.988884 14.506370,34.875648 
	C20.999681,21.437273 32.768349,15.613169 47.050484,14.202117 
	C56.152882,13.302816 65.005188,14.606503 73.366081,18.399950 
	C74.632195,18.974401 76.213959,20.511257 76.309860,21.710121 
	C76.662071,26.113440 76.449524,30.561932 76.449524,35.222580 
	C54.644665,26.210970 43.403816,26.821560 35.931709,37.137375 
	C28.916912,46.821835 29.432474,64.420662 36.989513,73.245506 
	C44.802174,82.368858 58.067184,82.602020 76.457939,73.510971 
	C76.457939,77.614044 76.457939,81.327248 76.457802,85.474304 
z"/>
<path fill="#FBFBFC" opacity="1.000000" stroke="none" 
	d="
M287.657715,92.764442 
	C277.256927,95.069916 267.235779,96.239204 257.164368,93.282532 
	C242.381958,88.942856 235.459274,77.551750 236.881332,59.936600 
	C238.009369,45.963455 248.023239,35.507553 262.186676,34.113426 
	C267.100037,33.629799 272.279419,33.520168 277.067871,34.524498 
	C292.627136,37.787918 301.160889,51.835709 298.611359,69.562851 
	C284.590088,69.562851 270.498383,69.562851 256.429535,69.562851 
	C256.161682,76.533417 260.205780,81.043472 267.371826,82.091087 
	C277.517212,83.574287 286.720276,80.417068 295.664185,76.075928 
	C298.391724,87.546150 297.273438,89.950882 287.657715,92.764442 
M279.277130,53.577168 
	C276.494476,47.556160 272.275940,45.144314 266.315460,46.166645 
	C260.368561,47.186649 256.790619,51.361824 256.367889,57.852234 
	C264.141113,57.852234 271.908295,57.852234 279.930420,57.852234 
	C279.795532,56.567692 279.678833,55.456085 279.277130,53.577168 
z"/>
<path fill="#FCFCFC" opacity="1.000000" stroke="none" 
	d="
M88.774757,73.924606 
	C88.983353,66.299080 88.001083,58.723896 89.886436,51.946434 
	C93.367287,39.433449 105.283531,33.235691 121.400185,33.746349 
	C136.554550,34.226513 146.547195,41.158642 150.255066,53.763695 
	C154.427368,67.947510 150.164169,82.522873 139.762344,89.637085 
	C128.668198,97.224800 108.280426,97.166168 98.405510,88.490761 
	C94.273315,84.860504 91.997375,79.117325 88.774757,73.924606 
M119.567940,81.642006 
	C127.079948,80.613518 130.601334,77.897110 131.542389,70.645401 
	C132.168961,65.817108 131.909332,60.657318 130.902237,55.887455 
	C129.597412,49.707573 125.232841,46.880894 119.364929,47.008873 
	C113.620293,47.134163 109.250183,50.261978 108.173622,56.404381 
	C107.333344,61.198631 107.354630,66.298752 107.939804,71.148735 
	C108.669548,77.196922 112.382637,81.010910 119.567940,81.642006 
z"/>
<path fill="#FCFCFC" opacity="1.000000" stroke="none" 
	d="
M433.465454,43.516037 
	C444.001434,30.806911 468.637817,31.863382 478.545532,38.799328 
	C488.594849,45.834373 493.190094,59.537010 489.675385,73.670486 
	C486.642670,85.865669 477.003906,93.876808 463.139526,94.721985 
	C457.598022,95.059807 451.784302,94.457474 446.399963,93.084900 
	C436.405914,90.537224 429.988617,83.742821 427.768951,73.624443 
	C425.442657,63.020336 426.063171,52.751610 433.465454,43.516037 
M450.231415,78.277878 
	C458.843842,84.782707 468.316315,81.814529 470.286346,71.343452 
	C471.264343,66.145416 470.743256,60.411324 469.700470,55.157917 
	C468.638794,49.809391 464.294128,47.154926 459.103485,47.013004 
	C453.524780,46.860470 449.474152,49.338501 447.650482,54.770195 
	C445.009003,62.637573 445.002563,70.426453 450.231415,78.277878 
z"/>
<path fill="#FBFAFB" opacity="1.000000" stroke="none" 
	d="
M410.637390,12.003742 
	C411.635406,13.029284 412.624695,14.044298 412.627808,15.062354 
	C412.706329,40.517509 412.682678,65.972992 412.659821,91.428398 
	C412.659393,91.892334 412.449249,92.356071 412.276642,93.068962 
	C406.335907,93.068962 400.408264,93.068962 394.222595,93.068962 
	C394.222595,66.147163 394.222595,39.297222 394.222595,11.994630 
	C399.615417,11.994630 404.892303,11.994630 410.637390,12.003742 
z"/>
<path fill="#72CE17" opacity="1.000000" stroke="none" 
	d="
M589.757568,85.027405 
	C589.757446,88.798019 589.757446,92.081802 589.757446,95.681992 
	C583.385376,95.681992 577.505066,95.681992 571.277710,95.681992 
	C571.277710,89.266167 571.277710,82.899185 571.277710,76.189804 
	C577.253845,76.189804 583.139404,76.189804 589.757751,76.189804 
	C589.757751,79.015160 589.757751,81.777870 589.757568,85.027405 
z"/>
<path fill="#2B0A44" opacity="1.000000" stroke="none" 
	d="
M333.909058,67.023895 
	C333.909058,64.075226 333.909058,61.618855 333.909058,59.020050 
	C339.343353,59.020050 344.325256,58.693359 349.244904,59.107075 
	C354.745300,59.569626 357.792786,63.440277 357.786835,68.961601 
	C357.780945,74.480515 354.735321,78.408997 349.290527,78.882484 
	C344.368683,79.310509 339.380249,78.972885 333.909058,78.972885 
	C333.909058,75.085457 333.909058,71.300819 333.909058,67.023895 
z"/>
<path fill="#2B0A44" opacity="1.000000" stroke="none" 
	d="
M341.887146,45.000443 
	C339.113068,45.000454 336.809845,45.000454 334.208954,45.000454 
	C334.208954,39.551811 334.208954,34.360584 334.208954,28.842247 
	C338.183044,28.842247 341.972443,28.724995 345.751831,28.869398 
	C351.597412,29.092741 354.519012,31.821703 354.547394,36.820805 
	C354.575500,41.769936 351.578522,44.591034 345.847198,44.964611 
	C344.688293,45.040146 343.521271,44.991711 341.887146,45.000443 
z"/>
<path fill="#2D0B45" opacity="1.000000" stroke="none" 
	d="
M538.674316,76.888466 
	C529.414062,82.123367 521.506042,78.756058 519.865845,68.674706 
	C519.141113,64.219910 519.486694,59.365925 520.428955,54.922726 
	C521.572754,49.528660 525.754150,46.752388 530.914001,46.575424 
	C536.457825,46.385296 540.405640,48.889549 542.171875,54.542377 
	C544.601257,62.317112 544.714355,69.956345 538.674316,76.888466 
z"/>
<path fill="#2D0B45" opacity="1.000000" stroke="none" 
	d="
M182.901794,52.090698 
	C186.137283,47.364532 190.464417,46.275578 195.394791,47.348450 
	C200.182327,48.390228 203.162979,51.976536 203.557510,56.403294 
	C204.077408,62.236710 203.894623,68.314758 202.795242,74.054199 
	C201.878571,78.839806 197.811737,81.238235 192.700394,81.325455 
	C187.421692,81.415520 183.657135,79.140915 181.870209,74.197639 
	C179.223633,66.876320 179.188873,59.559811 182.901794,52.090698 
z"/>
<path fill="#2D0C46" opacity="1.000000" stroke="none" 
	d="
M279.419617,53.960823 
	C279.678833,55.456085 279.795532,56.567692 279.930420,57.852234 
	C271.908295,57.852234 264.141113,57.852234 256.367889,57.852234 
	C256.790619,51.361824 260.368561,47.186649 266.315460,46.166645 
	C272.275940,45.144314 276.494476,47.556160 279.419617,53.960823 
z"/>
<path fill="#2C0B45" opacity="1.000000" stroke="none" 
	d="
M119.178520,81.620575 
	C112.382637,81.010910 108.669548,77.196922 107.939804,71.148735 
	C107.354630,66.298752 107.333344,61.198631 108.173622,56.404381 
	C109.250183,50.261978 113.620293,47.134163 119.364929,47.008873 
	C125.232841,46.880894 129.597412,49.707573 130.902237,55.887455 
	C131.909332,60.657318 132.168961,65.817108 131.542389,70.645401 
	C130.601334,77.897110 127.079948,80.613518 119.178520,81.620575 
z"/>
<path fill="#2C0B45" opacity="1.000000" stroke="none" 
	d="
M449.989441,77.987488 
	C445.002563,70.426453 445.009003,62.637573 447.650482,54.770195 
	C449.474152,49.338501 453.524780,46.860470 459.103485,47.013004 
	C464.294128,47.154926 468.638794,49.809391 469.700470,55.157917 
	C470.743256,60.411324 471.264343,66.145416 470.286346,71.343452 
	C468.316315,81.814529 458.843842,84.782707 449.989441,77.987488 
z"/>
</svg>